<svg width="140" height="140" viewBox="0 0 160 160" fill="none" xmlns="http://www.w3.org/2000/svg">
    <path d="M160 80C160 124.183 124.183 160 80 160C35.8172 160 0 124.183 0 80C0 35.8172 35.8172 0 80 0C124.183 0 160 35.8172 160 80ZM48 80C48 97.6731 62.3269 112 80 112C97.6731 112 112 97.6731 112 80C112 62.3269 97.6731 48 80 48C62.3269 48 48 62.3269 48 80Z" fill="rgb(107 114 128" />
    <circle cx="80" cy="80" r="20" />
    <path d="M121.761 145.879C122.352 146.812 122.076 148.05 121.129 148.618C107.398 156.848 91.4975 160.778 75.4837 159.872C59.4699 158.967 44.114 153.27 31.3983 143.544C30.5209 142.873 30.3864 141.612 31.0792 140.752L58.6756 106.481C59.3683 105.621 60.624 105.491 61.5259 106.129C66.415 109.586 72.1886 111.609 78.1935 111.949C84.1984 112.288 90.1633 110.928 95.411 108.045C96.379 107.513 97.612 107.784 98.2034 108.717L121.761 145.879Z" fill="rgb(248 113 113)" />
    <path d="M80 2C80 0.895431 80.8958 -0.00261026 82 0.0249902C99.155 0.453782 115.738 6.38963 129.283 16.9828C143.354 27.9872 153.337 43.3843 157.642 60.7209C161.947 78.0574 160.326 96.336 153.037 112.644C146.02 128.343 134.14 141.347 119.178 149.75C118.215 150.291 117.003 149.916 116.486 148.94L95.9043 110.051C95.3876 109.075 95.764 107.87 96.7061 107.293C102.204 103.928 106.572 98.9708 109.215 93.0577C112.13 86.5344 112.779 79.223 111.057 72.2883C109.335 65.3537 105.342 59.1949 99.7133 54.7931C94.6113 50.8031 88.432 48.465 81.9987 48.0625C80.8963 47.9935 80 47.1046 80 46V2Z" fill="rgb(132 204 22)" />
</svg>